<svg id="Layer_4" data-name="Layer 4" xmlns="http://www.w3.org/2000/svg" viewBox="0 0 32 32"><defs><style>.cls-1{fill:#ff2f5b;}.cls-2{fill:#25f4ee;}.cls-3{fill:#fff;}</style></defs><rect x="3" y="3" width="26" height="26" rx="1.68"/><path class="cls-1" d="M13,16.41A2.82,2.82,0,0,0,11.5,21.6a2.78,2.78,0,0,1-.44-1.51,2.82,2.82,0,0,1,2.81-2.82l.73.05V13.7c-.24,0-.48,0-.73,0h-.13v2.79Z"/><path class="cls-1" d="M21.48,9.93A6.75,6.75,0,0,1,20.3,6.79V6.71h-.72A5.59,5.59,0,0,0,21.48,9.93Z"/><path class="cls-1" d="M24.05,11.51v2.84a7.69,7.69,0,0,1-4.61-1.42v6.3A6.43,6.43,0,0,1,13,25.66a6.35,6.35,0,0,1-4.09-1.48A6.42,6.42,0,0,0,20.3,20.09v-6.3a7.66,7.66,0,0,0,4.61,1.41V11.59A4.65,4.65,0,0,1,24.05,11.51Z"/><path class="cls-2" d="M24.05,11.51v-.78a4.14,4.14,0,0,1-2.57-.8A4,4,0,0,0,24.05,11.51Z"/><path class="cls-2" d="M13.87,22.91a2.82,2.82,0,0,0,2.82-2.82V6.71h2.89c-.08-.35-.12-.64-.14-.78V5.86H15.83V19.23A2.81,2.81,0,0,1,11.5,21.6,2.83,2.83,0,0,0,13.87,22.91Z"/><path class="cls-2" d="M13.74,13.67v-.83c-.24,0-.48,0-.73,0A6.43,6.43,0,0,0,8.92,24.18a6.41,6.41,0,0,1,4.82-10.51Z"/><path class="cls-3" d="M19.44,19.23v-6.3a7.69,7.69,0,0,0,4.61,1.42V11.51a4,4,0,0,1-2.57-1.58,5.59,5.59,0,0,1-1.9-3.22H16.69V20.09A2.81,2.81,0,0,1,11.5,21.6,2.82,2.82,0,0,1,13,16.41l.74.05V13.67A6.41,6.41,0,0,0,8.92,24.18,6.35,6.35,0,0,0,13,25.66,6.43,6.43,0,0,0,19.44,19.23Z"/></svg>